<mxfile host="app.diagrams.net" modified="2024-05-04T10:48:26.677Z" agent="Mozilla/5.0 (Windows NT 10.0; Win64; x64) AppleWebKit/537.36 (KHTML, like Gecko) Chrome/124.0.0.0 Safari/537.36" etag="15wswCj4cMDRSmmeNZyI" version="24.3.1" type="device">
  <diagram name="Page-1" id="jAPyXskDUtAXBh9HrrIJ">
    <mxGraphModel dx="1687" dy="878" grid="1" gridSize="10" guides="1" tooltips="1" connect="1" arrows="1" fold="1" page="1" pageScale="1" pageWidth="827" pageHeight="1169" math="0" shadow="0">
      <root>
        <mxCell id="0" />
        <mxCell id="1" parent="0" />
        <mxCell id="WOQWDDisp3ZUjuXInnkZ-5" value="" style="edgeStyle=orthogonalEdgeStyle;rounded=0;orthogonalLoop=1;jettySize=auto;html=1;" parent="1" source="WOQWDDisp3ZUjuXInnkZ-1" target="WOQWDDisp3ZUjuXInnkZ-2" edge="1">
          <mxGeometry relative="1" as="geometry" />
        </mxCell>
        <mxCell id="WOQWDDisp3ZUjuXInnkZ-1" value="start" style="rounded=1;whiteSpace=wrap;html=1;" parent="1" vertex="1">
          <mxGeometry x="340" y="10" width="120" height="60" as="geometry" />
        </mxCell>
        <mxCell id="WOQWDDisp3ZUjuXInnkZ-2" value="@app.route" style="rhombus;whiteSpace=wrap;html=1;" parent="1" vertex="1">
          <mxGeometry x="280" y="110" width="240" height="80" as="geometry" />
        </mxCell>
        <mxCell id="WOQWDDisp3ZUjuXInnkZ-3" value="" style="endArrow=none;html=1;rounded=0;" parent="1" edge="1">
          <mxGeometry width="50" height="50" relative="1" as="geometry">
            <mxPoint x="70" y="150" as="sourcePoint" />
            <mxPoint x="280" y="150" as="targetPoint" />
          </mxGeometry>
        </mxCell>
        <mxCell id="WOQWDDisp3ZUjuXInnkZ-4" value="" style="endArrow=classic;html=1;rounded=0;" parent="1" edge="1">
          <mxGeometry width="50" height="50" relative="1" as="geometry">
            <mxPoint x="70" y="150" as="sourcePoint" />
            <mxPoint x="70" y="270" as="targetPoint" />
          </mxGeometry>
        </mxCell>
        <mxCell id="WOQWDDisp3ZUjuXInnkZ-6" value="/" style="edgeLabel;html=1;align=center;verticalAlign=middle;resizable=0;points=[];" parent="WOQWDDisp3ZUjuXInnkZ-4" vertex="1" connectable="0">
          <mxGeometry x="0.0333" y="-3" relative="1" as="geometry">
            <mxPoint x="1" as="offset" />
          </mxGeometry>
        </mxCell>
        <mxCell id="WOQWDDisp3ZUjuXInnkZ-7" value="Отримання з бази даних всіх записів та виведення ії на сторінку через шаблон &quot;index.html&quot;" style="rounded=0;whiteSpace=wrap;html=1;" parent="1" vertex="1">
          <mxGeometry x="10" y="270" width="130" height="150" as="geometry" />
        </mxCell>
        <mxCell id="WOQWDDisp3ZUjuXInnkZ-8" value="" style="endArrow=classic;html=1;rounded=0;" parent="1" edge="1">
          <mxGeometry width="50" height="50" relative="1" as="geometry">
            <mxPoint x="234.5" y="150" as="sourcePoint" />
            <mxPoint x="234.5" y="260" as="targetPoint" />
          </mxGeometry>
        </mxCell>
        <mxCell id="WOQWDDisp3ZUjuXInnkZ-33" value="/store-record" style="edgeLabel;html=1;align=center;verticalAlign=middle;resizable=0;points=[];" parent="WOQWDDisp3ZUjuXInnkZ-8" vertex="1" connectable="0">
          <mxGeometry y="3" relative="1" as="geometry">
            <mxPoint as="offset" />
          </mxGeometry>
        </mxCell>
        <mxCell id="WOQWDDisp3ZUjuXInnkZ-9" value="" style="endArrow=classic;html=1;rounded=0;" parent="1" edge="1">
          <mxGeometry width="50" height="50" relative="1" as="geometry">
            <mxPoint x="400" y="190" as="sourcePoint" />
            <mxPoint x="400" y="270" as="targetPoint" />
          </mxGeometry>
        </mxCell>
        <mxCell id="WOQWDDisp3ZUjuXInnkZ-34" value="/edit-record/&amp;lt;int:record_id&amp;gt;" style="edgeLabel;html=1;align=center;verticalAlign=middle;resizable=0;points=[];" parent="WOQWDDisp3ZUjuXInnkZ-9" vertex="1" connectable="0">
          <mxGeometry x="-0.425" y="2" relative="1" as="geometry">
            <mxPoint as="offset" />
          </mxGeometry>
        </mxCell>
        <mxCell id="WOQWDDisp3ZUjuXInnkZ-10" value="" style="endArrow=classic;html=1;rounded=0;entryX=0.5;entryY=0;entryDx=0;entryDy=0;entryPerimeter=0;" parent="1" edge="1">
          <mxGeometry width="50" height="50" relative="1" as="geometry">
            <mxPoint x="594.5" y="150" as="sourcePoint" />
            <mxPoint x="594.5" y="270" as="targetPoint" />
          </mxGeometry>
        </mxCell>
        <mxCell id="WOQWDDisp3ZUjuXInnkZ-35" value="&#39;/update-record/&amp;lt;int:record_id&amp;gt;&#39;, methods=[&#39;POST&#39;]" style="edgeLabel;html=1;align=center;verticalAlign=middle;resizable=0;points=[];" parent="WOQWDDisp3ZUjuXInnkZ-10" vertex="1" connectable="0">
          <mxGeometry x="-0.1167" y="2" relative="1" as="geometry">
            <mxPoint as="offset" />
          </mxGeometry>
        </mxCell>
        <mxCell id="WOQWDDisp3ZUjuXInnkZ-11" value="" style="endArrow=none;html=1;rounded=0;" parent="1" edge="1">
          <mxGeometry width="50" height="50" relative="1" as="geometry">
            <mxPoint x="520" y="150" as="sourcePoint" />
            <mxPoint x="750" y="150" as="targetPoint" />
          </mxGeometry>
        </mxCell>
        <mxCell id="WOQWDDisp3ZUjuXInnkZ-12" value="" style="endArrow=classic;html=1;rounded=0;entryX=0.408;entryY=0;entryDx=0;entryDy=0;entryPerimeter=0;" parent="1" target="WOQWDDisp3ZUjuXInnkZ-16" edge="1">
          <mxGeometry width="50" height="50" relative="1" as="geometry">
            <mxPoint x="750" y="150" as="sourcePoint" />
            <mxPoint x="750" y="260" as="targetPoint" />
          </mxGeometry>
        </mxCell>
        <mxCell id="WOQWDDisp3ZUjuXInnkZ-44" value="&#39;/delete-record/&amp;lt;int:record_id&amp;gt;&#39;, methods=[&#39;POST&#39;]" style="edgeLabel;html=1;align=center;verticalAlign=middle;resizable=0;points=[];" parent="WOQWDDisp3ZUjuXInnkZ-12" vertex="1" connectable="0">
          <mxGeometry x="0.0331" y="2" relative="1" as="geometry">
            <mxPoint as="offset" />
          </mxGeometry>
        </mxCell>
        <mxCell id="8IZ1TA5g5CJlBT85W_fM-2" style="edgeStyle=orthogonalEdgeStyle;rounded=0;orthogonalLoop=1;jettySize=auto;html=1;entryX=0;entryY=0.5;entryDx=0;entryDy=0;exitX=0.5;exitY=1;exitDx=0;exitDy=0;" edge="1" parent="1" source="WOQWDDisp3ZUjuXInnkZ-14" target="8IZ1TA5g5CJlBT85W_fM-1">
          <mxGeometry relative="1" as="geometry">
            <Array as="points">
              <mxPoint x="460" y="480" />
              <mxPoint x="460" y="890" />
            </Array>
          </mxGeometry>
        </mxCell>
        <mxCell id="WOQWDDisp3ZUjuXInnkZ-14" value="Отримання запису з бази даних через айді який переданий останнім параметром посиллання за вивидення форми з данними для редагування через шаблон &quot;edit_record.html&quot;" style="rounded=0;whiteSpace=wrap;html=1;" parent="1" vertex="1">
          <mxGeometry x="354" y="270" width="120" height="210" as="geometry" />
        </mxCell>
        <mxCell id="8IZ1TA5g5CJlBT85W_fM-5" style="edgeStyle=orthogonalEdgeStyle;rounded=0;orthogonalLoop=1;jettySize=auto;html=1;entryX=1;entryY=0.5;entryDx=0;entryDy=0;" edge="1" parent="1" source="WOQWDDisp3ZUjuXInnkZ-16" target="8IZ1TA5g5CJlBT85W_fM-1">
          <mxGeometry relative="1" as="geometry" />
        </mxCell>
        <mxCell id="WOQWDDisp3ZUjuXInnkZ-16" value="Видалення контакту з бази даних та перенаравлення на головну сторінку" style="rounded=0;whiteSpace=wrap;html=1;" parent="1" vertex="1">
          <mxGeometry x="700" y="300" width="120" height="80" as="geometry" />
        </mxCell>
        <mxCell id="WOQWDDisp3ZUjuXInnkZ-18" style="edgeStyle=orthogonalEdgeStyle;rounded=0;orthogonalLoop=1;jettySize=auto;html=1;" parent="1" source="WOQWDDisp3ZUjuXInnkZ-17" edge="1">
          <mxGeometry relative="1" as="geometry">
            <mxPoint x="235" y="380" as="targetPoint" />
          </mxGeometry>
        </mxCell>
        <mxCell id="WOQWDDisp3ZUjuXInnkZ-40" value="true" style="edgeLabel;html=1;align=center;verticalAlign=middle;resizable=0;points=[];" parent="WOQWDDisp3ZUjuXInnkZ-18" vertex="1" connectable="0">
          <mxGeometry x="-0.21" relative="1" as="geometry">
            <mxPoint as="offset" />
          </mxGeometry>
        </mxCell>
        <mxCell id="WOQWDDisp3ZUjuXInnkZ-17" value="request.method == &quot;POST&quot;" style="rhombus;whiteSpace=wrap;html=1;" parent="1" vertex="1">
          <mxGeometry x="150" y="260" width="170" height="80" as="geometry" />
        </mxCell>
        <mxCell id="WOQWDDisp3ZUjuXInnkZ-21" value="" style="edgeStyle=orthogonalEdgeStyle;rounded=0;orthogonalLoop=1;jettySize=auto;html=1;" parent="1" source="WOQWDDisp3ZUjuXInnkZ-19" target="WOQWDDisp3ZUjuXInnkZ-20" edge="1">
          <mxGeometry relative="1" as="geometry" />
        </mxCell>
        <mxCell id="WOQWDDisp3ZUjuXInnkZ-19" value="Запис та валідація даних даних з ріквесту та&amp;nbsp;" style="rounded=0;whiteSpace=wrap;html=1;" parent="1" vertex="1">
          <mxGeometry x="175" y="380" width="120" height="140" as="geometry" />
        </mxCell>
        <mxCell id="WOQWDDisp3ZUjuXInnkZ-25" style="edgeStyle=orthogonalEdgeStyle;rounded=0;orthogonalLoop=1;jettySize=auto;html=1;exitX=1;exitY=0.5;exitDx=0;exitDy=0;entryX=0.5;entryY=0;entryDx=0;entryDy=0;" parent="1" source="WOQWDDisp3ZUjuXInnkZ-20" target="WOQWDDisp3ZUjuXInnkZ-24" edge="1">
          <mxGeometry relative="1" as="geometry" />
        </mxCell>
        <mxCell id="WOQWDDisp3ZUjuXInnkZ-20" value="try&lt;div&gt;&lt;br&gt;&lt;/div&gt;" style="rhombus;whiteSpace=wrap;html=1;" parent="1" vertex="1">
          <mxGeometry x="120" y="545" width="230" height="80" as="geometry" />
        </mxCell>
        <mxCell id="WOQWDDisp3ZUjuXInnkZ-27" style="edgeStyle=orthogonalEdgeStyle;rounded=0;orthogonalLoop=1;jettySize=auto;html=1;" parent="1" source="WOQWDDisp3ZUjuXInnkZ-22" target="WOQWDDisp3ZUjuXInnkZ-26" edge="1">
          <mxGeometry relative="1" as="geometry">
            <Array as="points">
              <mxPoint x="200" y="760" />
            </Array>
          </mxGeometry>
        </mxCell>
        <mxCell id="WOQWDDisp3ZUjuXInnkZ-22" value="Додавання та збереження змін в базі даних через сутність user та додавання повідомлення через створення повідомлення про успішну операцію&lt;div&gt;&lt;br&gt;&lt;/div&gt;" style="rounded=0;whiteSpace=wrap;html=1;" parent="1" vertex="1">
          <mxGeometry x="20" y="680" width="120" height="160" as="geometry" />
        </mxCell>
        <mxCell id="WOQWDDisp3ZUjuXInnkZ-23" value="" style="endArrow=classic;html=1;rounded=0;entryX=0.5;entryY=0;entryDx=0;entryDy=0;exitX=0;exitY=0.5;exitDx=0;exitDy=0;" parent="1" source="WOQWDDisp3ZUjuXInnkZ-20" target="WOQWDDisp3ZUjuXInnkZ-22" edge="1">
          <mxGeometry width="50" height="50" relative="1" as="geometry">
            <mxPoint x="120" y="580" as="sourcePoint" />
            <mxPoint x="170" y="530" as="targetPoint" />
            <Array as="points">
              <mxPoint x="80" y="585" />
            </Array>
          </mxGeometry>
        </mxCell>
        <mxCell id="WOQWDDisp3ZUjuXInnkZ-28" style="edgeStyle=orthogonalEdgeStyle;rounded=0;orthogonalLoop=1;jettySize=auto;html=1;entryX=0.75;entryY=0;entryDx=0;entryDy=0;" parent="1" source="WOQWDDisp3ZUjuXInnkZ-24" target="WOQWDDisp3ZUjuXInnkZ-26" edge="1">
          <mxGeometry relative="1" as="geometry" />
        </mxCell>
        <mxCell id="WOQWDDisp3ZUjuXInnkZ-24" value="У разі помилки буде створено повідомлення про некоректність даних чи сбою на сервері бази даних" style="rounded=0;whiteSpace=wrap;html=1;" parent="1" vertex="1">
          <mxGeometry x="320" y="680" width="120" height="160" as="geometry" />
        </mxCell>
        <mxCell id="WOQWDDisp3ZUjuXInnkZ-26" value="Створення редіректу на головну сторінку" style="rounded=0;whiteSpace=wrap;html=1;" parent="1" vertex="1">
          <mxGeometry x="175" y="880" width="120" height="60" as="geometry" />
        </mxCell>
        <mxCell id="WOQWDDisp3ZUjuXInnkZ-29" value="" style="endArrow=none;html=1;rounded=0;" parent="1" edge="1">
          <mxGeometry width="50" height="50" relative="1" as="geometry">
            <mxPoint x="150" y="520" as="sourcePoint" />
            <mxPoint x="150" y="300" as="targetPoint" />
          </mxGeometry>
        </mxCell>
        <mxCell id="WOQWDDisp3ZUjuXInnkZ-30" value="" style="endArrow=none;html=1;rounded=0;" parent="1" edge="1">
          <mxGeometry width="50" height="50" relative="1" as="geometry">
            <mxPoint x="10" y="520" as="sourcePoint" />
            <mxPoint x="150" y="520" as="targetPoint" />
          </mxGeometry>
        </mxCell>
        <mxCell id="WOQWDDisp3ZUjuXInnkZ-31" value="" style="endArrow=none;html=1;rounded=0;" parent="1" edge="1">
          <mxGeometry width="50" height="50" relative="1" as="geometry">
            <mxPoint x="10" y="900" as="sourcePoint" />
            <mxPoint x="10" y="520" as="targetPoint" />
          </mxGeometry>
        </mxCell>
        <mxCell id="WOQWDDisp3ZUjuXInnkZ-32" value="" style="endArrow=classic;html=1;rounded=0;entryX=0.017;entryY=0.367;entryDx=0;entryDy=0;entryPerimeter=0;" parent="1" target="WOQWDDisp3ZUjuXInnkZ-26" edge="1">
          <mxGeometry width="50" height="50" relative="1" as="geometry">
            <mxPoint x="10" y="902" as="sourcePoint" />
            <mxPoint x="60" y="850" as="targetPoint" />
          </mxGeometry>
        </mxCell>
        <mxCell id="WOQWDDisp3ZUjuXInnkZ-36" value="валідація введених даних" style="rhombus;whiteSpace=wrap;html=1;" parent="1" vertex="1">
          <mxGeometry x="510" y="270" width="170" height="80" as="geometry" />
        </mxCell>
        <mxCell id="WOQWDDisp3ZUjuXInnkZ-37" value="" style="endArrow=classic;html=1;rounded=0;exitX=0.5;exitY=1;exitDx=0;exitDy=0;" parent="1" source="WOQWDDisp3ZUjuXInnkZ-36" edge="1">
          <mxGeometry width="50" height="50" relative="1" as="geometry">
            <mxPoint x="390" y="540" as="sourcePoint" />
            <mxPoint x="595" y="440" as="targetPoint" />
            <Array as="points" />
          </mxGeometry>
        </mxCell>
        <mxCell id="WOQWDDisp3ZUjuXInnkZ-39" value="true" style="edgeLabel;html=1;align=center;verticalAlign=middle;resizable=0;points=[];" parent="WOQWDDisp3ZUjuXInnkZ-37" vertex="1" connectable="0">
          <mxGeometry x="-0.0667" y="1" relative="1" as="geometry">
            <mxPoint as="offset" />
          </mxGeometry>
        </mxCell>
        <mxCell id="WOQWDDisp3ZUjuXInnkZ-43" value="" style="edgeStyle=orthogonalEdgeStyle;rounded=0;orthogonalLoop=1;jettySize=auto;html=1;" parent="1" source="WOQWDDisp3ZUjuXInnkZ-38" target="WOQWDDisp3ZUjuXInnkZ-41" edge="1">
          <mxGeometry relative="1" as="geometry" />
        </mxCell>
        <mxCell id="WOQWDDisp3ZUjuXInnkZ-38" value="Отримання з ріквесту даних та запис в існуючий об&#39;єкт до сутності" style="rounded=0;whiteSpace=wrap;html=1;" parent="1" vertex="1">
          <mxGeometry x="535" y="440" width="120" height="130" as="geometry" />
        </mxCell>
        <mxCell id="8IZ1TA5g5CJlBT85W_fM-4" style="edgeStyle=orthogonalEdgeStyle;rounded=0;orthogonalLoop=1;jettySize=auto;html=1;" edge="1" parent="1" source="WOQWDDisp3ZUjuXInnkZ-41" target="8IZ1TA5g5CJlBT85W_fM-1">
          <mxGeometry relative="1" as="geometry" />
        </mxCell>
        <mxCell id="WOQWDDisp3ZUjuXInnkZ-41" value="Перенаправлення на головну сторінку" style="rounded=0;whiteSpace=wrap;html=1;" parent="1" vertex="1">
          <mxGeometry x="490" y="600" width="120" height="60" as="geometry" />
        </mxCell>
        <mxCell id="WOQWDDisp3ZUjuXInnkZ-42" value="" style="endArrow=classic;html=1;rounded=0;entryX=0.167;entryY=-0.1;entryDx=0;entryDy=0;entryPerimeter=0;" parent="1" target="WOQWDDisp3ZUjuXInnkZ-41" edge="1">
          <mxGeometry width="50" height="50" relative="1" as="geometry">
            <mxPoint x="510" y="310" as="sourcePoint" />
            <mxPoint x="560" y="260" as="targetPoint" />
          </mxGeometry>
        </mxCell>
        <mxCell id="8IZ1TA5g5CJlBT85W_fM-1" value="Повернення до головної сторінки (index.html) разом зі змінами" style="rounded=1;whiteSpace=wrap;html=1;" vertex="1" parent="1">
          <mxGeometry x="580" y="860" width="120" height="60" as="geometry" />
        </mxCell>
        <mxCell id="8IZ1TA5g5CJlBT85W_fM-3" value="" style="endArrow=classic;html=1;rounded=0;entryX=0.5;entryY=1;entryDx=0;entryDy=0;exitX=0.5;exitY=1;exitDx=0;exitDy=0;" edge="1" parent="1" source="WOQWDDisp3ZUjuXInnkZ-26" target="8IZ1TA5g5CJlBT85W_fM-1">
          <mxGeometry width="50" height="50" relative="1" as="geometry">
            <mxPoint x="300" y="920" as="sourcePoint" />
            <mxPoint x="350" y="870" as="targetPoint" />
            <Array as="points">
              <mxPoint x="235" y="990" />
              <mxPoint x="640" y="990" />
            </Array>
          </mxGeometry>
        </mxCell>
        <mxCell id="8IZ1TA5g5CJlBT85W_fM-6" value="повернення до початку алгоритму" style="rounded=1;whiteSpace=wrap;html=1;" vertex="1" parent="1">
          <mxGeometry x="10" y="440" width="120" height="60" as="geometry" />
        </mxCell>
        <mxCell id="8IZ1TA5g5CJlBT85W_fM-7" value="" style="endArrow=classic;html=1;rounded=0;entryX=0.5;entryY=0;entryDx=0;entryDy=0;" edge="1" parent="1" target="8IZ1TA5g5CJlBT85W_fM-6">
          <mxGeometry width="50" height="50" relative="1" as="geometry">
            <mxPoint x="70" y="420" as="sourcePoint" />
            <mxPoint x="120" y="370" as="targetPoint" />
          </mxGeometry>
        </mxCell>
      </root>
    </mxGraphModel>
  </diagram>
</mxfile>
